<svg xmlns="http://www.w3.org/2000/svg" width="147" height="187" viewBox="0 0 147 187" fill="none"><path fill-rule="evenodd" clip-rule="evenodd" d="M104.825 88.9421C107.604 88.9421 110.516 89.8686 113.031 88.5451C115.413 87.3539 117.134 84.9715 115.413 82.9862C111.972 79.6773 113.957 83.5156 109.589 84.3097C106.545 84.8392 105.883 83.3833 101.78 84.3097C100.589 86.8245 100.325 89.4715 99.2658 91.7216C93.0451 89.6039 89.3392 77.4273 93.0451 74.6479C96.354 73.4567 97.9422 75.9714 101.119 74.1184C104.692 72.0008 103.766 69.2213 99.0011 69.486C91.0598 69.8831 86.6921 69.486 86.8244 79.1479C86.9568 86.9568 95.1628 99.1334 101.383 97.1481C104.825 96.0893 104.56 92.5157 104.825 88.9421ZM146.119 53.3388C140.56 63.5301 122.295 66.5742 109.457 52.5447C102.575 45.0005 99.9275 40.6328 88.9421 36.6622C70.2802 29.9121 50.1623 37.8533 40.7651 54.2653C34.8092 64.5889 35.0739 70.9419 36.2651 83.648C30.5738 83.2509 28.5885 83.7803 28.1915 89.4715C27.9268 93.3098 29.515 96.8834 31.1033 99.6628C41.1622 116.472 42.0887 98.2069 42.0887 98.0746C46.1917 99.7952 48.3093 103.898 51.7505 106.678C54.7947 109.325 58.2359 111.442 62.0742 113.692C69.2213 117.928 79.1479 122.163 89.6039 121.237C88.6774 117.001 84.8391 117.663 87.2215 112.898C94.6334 108.398 108.001 120.178 119.384 113.957C118.06 109.325 114.884 110.119 112.501 105.883C113.428 98.3393 126.001 93.8392 136.06 96.8834C139.237 97.9422 142.149 99.6628 144.134 102.045C133.281 129.707 106.281 149.296 74.6479 149.296C33.4856 149.296 0 115.942 0 74.6479C0 33.4857 33.3533 0 74.6479 0C108.398 0.264709 136.854 22.6326 146.119 53.3388ZM65.9125 66.3095C63.5301 67.3684 62.8683 71.6037 64.7213 75.839C66.4419 80.0744 69.8831 82.7215 72.2655 81.795C74.6478 80.7362 75.3096 76.5008 73.4567 72.2655C71.7361 67.8978 68.2949 65.3831 65.9125 66.3095ZM46.7211 72.2655C44.6034 73.192 44.074 76.8979 45.6623 80.7362C47.2505 84.5744 50.2946 86.8245 52.4123 86.0303C54.53 85.1039 55.0594 81.3979 53.4711 77.5597C51.8829 73.7214 48.8388 71.4714 46.7211 72.2655Z" fill="#F5F5F5"></path><path d="M10.2141 180.695H5.97915V178.024H10.2141C10.8685 178.024 11.4012 177.918 11.8122 177.705C12.2231 177.484 12.5237 177.18 12.714 176.791C12.9042 176.403 12.9993 175.966 12.9993 175.479C12.9993 174.984 12.9042 174.524 12.714 174.097C12.5237 173.671 12.2231 173.329 11.8122 173.07C11.4012 172.811 10.8685 172.682 10.2141 172.682H7.1663V186.62H3.74182V170H10.2141C11.5154 170 12.6302 170.235 13.5587 170.707C14.4947 171.171 15.21 171.815 15.7047 172.636C16.1993 173.458 16.4466 174.398 16.4466 175.456C16.4466 176.529 16.1993 177.457 15.7047 178.241C15.21 179.025 14.4947 179.63 13.5587 180.056C12.6302 180.482 11.5154 180.695 10.2141 180.695Z" fill="#F5F5F5"></path><path d="M34.3352 176.769V179.44H25.6599V176.769H34.3352ZM26.6758 170V186.62H23.2513V170H26.6758ZM36.778 170V186.62H33.3649V170H36.778Z" fill="#F5F5F5"></path><path d="M51.1622 172.842L46.6419 186.62H43.0005L49.176 170H51.4932L51.1622 172.842ZM54.9177 186.62L50.386 172.842L50.0207 170H52.3608L58.5705 186.62H54.9177ZM54.7122 180.433V183.115H45.9342V180.433H54.7122Z" fill="#F5F5F5"></path><path d="M78.08 170V186.62H74.6555L67.9778 175.479V186.62H64.5533V170H67.9778L74.6669 181.152V170H78.08Z" fill="#F5F5F5"></path><path d="M92.5897 170V186.62H89.1766V170H92.5897ZM97.7036 170V172.682H84.1427V170H97.7036Z" fill="#F5F5F5"></path><path d="M117.43 177.922V178.709C117.43 179.972 117.259 181.106 116.916 182.111C116.574 183.115 116.091 183.971 115.467 184.679C114.843 185.379 114.097 185.916 113.229 186.289C112.369 186.662 111.414 186.848 110.364 186.848C109.322 186.848 108.367 186.662 107.499 186.289C106.639 185.916 105.893 185.379 105.262 184.679C104.63 183.971 104.139 183.115 103.789 182.111C103.447 181.106 103.275 179.972 103.275 178.709V177.922C103.275 176.651 103.447 175.517 103.789 174.52C104.132 173.515 104.615 172.659 105.239 171.951C105.87 171.244 106.616 170.703 107.476 170.331C108.344 169.958 109.299 169.771 110.341 169.771C111.391 169.771 112.347 169.958 113.206 170.331C114.074 170.703 114.82 171.244 115.444 171.951C116.075 172.659 116.562 173.515 116.905 174.52C117.255 175.517 117.43 176.651 117.43 177.922ZM113.971 178.709V177.899C113.971 177.016 113.891 176.24 113.732 175.57C113.572 174.9 113.336 174.337 113.024 173.881C112.712 173.424 112.331 173.082 111.882 172.853C111.433 172.617 110.92 172.499 110.341 172.499C109.763 172.499 109.249 172.617 108.8 172.853C108.359 173.082 107.982 173.424 107.67 173.881C107.366 174.337 107.134 174.9 106.974 175.57C106.814 176.24 106.734 177.016 106.734 177.899V178.709C106.734 179.584 106.814 180.36 106.974 181.038C107.134 181.707 107.37 182.274 107.682 182.739C107.994 183.195 108.374 183.541 108.823 183.777C109.272 184.013 109.786 184.131 110.364 184.131C110.942 184.131 111.456 184.013 111.905 183.777C112.354 183.541 112.731 183.195 113.035 182.739C113.34 182.274 113.572 181.707 113.732 181.038C113.891 180.36 113.971 179.584 113.971 178.709Z" fill="#F5F5F5"></path><path d="M125.901 170H128.801L133.07 182.202L137.339 170H140.238L134.234 186.62H131.905L125.901 170ZM124.337 170H127.225L127.75 181.894V186.62H124.337V170ZM138.914 170H141.814V186.62H138.389V181.894L138.914 170Z" fill="#F5F5F5"></path></svg>